<svg xmlns="http://www.w3.org/2000/svg"><symbol id="icon-arrow-down" viewBox="0 0 16 16"><path d="M14.6 3L8 9.6 1.4 3 0 4.4l8 8 8-8L14.6 3z"/></symbol><symbol id="logo-icon" viewBox="0 0 32 32"><style>.st0{fill:url(#XMLID_2_);} .st1{fill:#FFFFFF;} .st2{fill:url(#XMLID_3_);}</style><g id="B_4_"><g id="XMLID_462_"><radialGradient id="XMLID_2_" cx=".083" cy="0" r="44.988" gradientUnits="userSpaceOnUse"><stop offset="0" stop-color="#F59839"/><stop offset="1" stop-color="#F38936"/></radialGradient><path id="XMLID_475_" class="st0" d="M32 29.3c0 1.5-1.2 2.7-2.7 2.7H2.7C1.2 32 0 30.8 0 29.3V2.7C0 1.2 1.2 0 2.7 0h26.7C30.8 0 32 1.2 32 2.7v26.6z"/><g id="XMLID_464_"><g id="XMLID_465_"><path id="XMLID_466_" class="st1" d="M25.3 13.3H24c-.7 0-1.3-.6-1.3-1.3 0-3.7-3-6.7-6.7-6.7h-4c-3.7 0-6.7 3-6.7 6.7v8c0 3.7 3 6.7 6.7 6.7h8c3.7 0 6.7-3 6.7-6.7v-5.3c0-.8-.6-1.4-1.4-1.4zm-13.4-2.6h4.8c.7 0 1.3.6 1.3 1.3 0 .7-.6 1.3-1.3 1.3h-4.8c-.7 0-1.3-.6-1.3-1.3 0-.7.6-1.3 1.3-1.3zm8.2 10.6H12c-.7 0-1.3-.6-1.3-1.3 0-.7.6-1.3 1.3-1.3h8.1c.7 0 1.3.6 1.3 1.3 0 .7-.6 1.3-1.3 1.3z"/></g></g><radialGradient id="XMLID_3_" cx=".067" cy=".033" r="45.159" gradientUnits="userSpaceOnUse"><stop offset="0" stop-color="#FFF" stop-opacity=".1"/><stop offset="1" stop-color="#FFF" stop-opacity="0"/></radialGradient><path id="XMLID_463_" class="st2" d="M32 29.3c0 1.5-1.2 2.7-2.7 2.7H2.7C1.2 32 0 30.8 0 29.3V2.7C0 1.2 1.2 0 2.7 0h26.7C30.8 0 32 1.2 32 2.7v26.6z"/></g></g></symbol><symbol id="logo-type" viewBox="0 0 96 32"><path d="M6.2 7h5.2c2.4 0 4.2.4 5.2 1.1 1.1.7 1.6 1.8 1.6 3.3 0 1-.3 1.9-.8 2.5-.5.7-1.3 1.1-2.3 1.3v.1c1.2.2 2.1.7 2.7 1.4.6.7.9 1.6.9 2.8 0 1.6-.5 2.8-1.6 3.7-1.1.9-2.6 1.3-4.6 1.3H6.2V7zm2.9 7.2h2.8c1.2 0 2.1-.2 2.6-.6.6-.4.8-1 .8-1.9 0-.8-.3-1.4-.9-1.8-.6-.4-1.5-.6-2.8-.6H9.1v4.9zm0 2.3V22h3c1.2 0 2.1-.2 2.7-.7.6-.5.9-1.2.9-2.2 0-.9-.3-1.6-.9-2-.6-.4-1.6-.7-2.8-.7H9.1zM23.9 24.5h-2.8V5.9h2.8v18.6zM38.7 17.8c0 2.2-.6 3.8-1.7 5.1-1.1 1.2-2.7 1.8-4.6 1.8-1.2 0-2.3-.3-3.3-.8-.9-.6-1.7-1.4-2.2-2.4-.5-1-.8-2.3-.8-3.6 0-2.1.6-3.8 1.7-5 1.1-1.2 2.7-1.8 4.7-1.8 1.9 0 3.4.6 4.5 1.8 1.1 1.2 1.7 2.8 1.7 4.9zm-9.7 0c0 3.1 1.1 4.6 3.4 4.6 2.2 0 3.4-1.5 3.4-4.6 0-3-1.1-4.5-3.4-4.5-1.2 0-2 .4-2.6 1.2-.5.8-.8 1.9-.8 3.3zM52.1 11.2v1.5l-2.3.4c.2.3.4.6.5 1 .1.4.2.8.2 1.3 0 1.4-.5 2.4-1.4 3.2-.9.8-2.2 1.2-3.9 1.2-.4 0-.8 0-1.1-.1-.6.4-.9.8-.9 1.3 0 .3.1.5.4.7.3.2.8.2 1.6.2h2.3c1.5 0 2.6.3 3.3.9.8.6 1.1 1.5 1.1 2.7 0 1.5-.6 2.7-1.9 3.5-1.2.8-3 1.2-5.4 1.2-1.8 0-3.2-.3-4.1-1-.9-.6-1.4-1.5-1.4-2.7 0-.8.3-1.5.8-2.1.5-.6 1.2-.9 2.2-1.2-.4-.2-.7-.4-.9-.8-.2-.4-.4-.7-.4-1.1 0-.5.1-.9.4-1.3.3-.3.7-.7 1.2-1-.7-.3-1.2-.8-1.7-1.4-.4-.7-.6-1.4-.6-2.3 0-1.4.5-2.5 1.4-3.3.9-.8 2.2-1.2 3.9-1.2.4 0 .8 0 1.2.1.4.1.7.1.9.2h4.6zM41.7 26.5c0 .6.3 1.1.8 1.4.5.3 1.3.5 2.3.5 1.5 0 2.7-.2 3.4-.7.8-.4 1.1-1 1.1-1.7 0-.6-.2-1-.6-1.2-.4-.2-1.2-.4-2.3-.4h-2.1c-.8 0-1.4.2-1.9.6-.5.4-.7.9-.7 1.5zm1.2-11c0 .8.2 1.5.6 1.9.4.4 1 .7 1.8.7 1.6 0 2.4-.9 2.4-2.6 0-.9-.2-1.5-.6-2-.4-.5-1-.7-1.8-.7s-1.4.2-1.8.7c-.4.5-.6 1.1-.6 2zM65.5 11.2v1.5l-2.3.4c.2.3.4.6.5 1 .1.4.2.8.2 1.3 0 1.4-.5 2.4-1.4 3.2-.9.8-2.2 1.2-3.9 1.2-.4 0-.8 0-1.1-.1-.6.4-.9.8-.9 1.3 0 .3.1.5.4.7.3.2.8.2 1.6.2h2.3c1.5 0 2.6.3 3.3.9.8.6 1.1 1.5 1.1 2.7 0 1.5-.6 2.7-1.9 3.5-1.2.8-3 1.2-5.4 1.2-1.8 0-3.2-.3-4.1-1-1-.6-1.4-1.5-1.4-2.7 0-.8.3-1.5.8-2.1.5-.6 1.2-.9 2.2-1.2-.4-.2-.7-.4-.9-.8-.2-.4-.4-.7-.4-1.1 0-.5.1-.9.4-1.3.3-.3.7-.7 1.2-1-.7-.3-1.2-.8-1.7-1.4-.4-.7-.6-1.4-.6-2.3 0-1.4.5-2.5 1.4-3.3.9-.8 2.2-1.2 3.9-1.2.4 0 .8 0 1.2.1.4.1.7.1.9.2h4.6zM55.1 26.5c0 .6.3 1.1.8 1.4.5.3 1.3.5 2.3.5 1.5 0 2.7-.2 3.4-.7.8-.4 1.1-1 1.1-1.7 0-.6-.2-1-.6-1.2-.4-.2-1.2-.4-2.3-.4h-2.1c-.8 0-1.4.2-1.9.6-.5.4-.7.9-.7 1.5zm1.2-11c0 .8.2 1.5.6 1.9.4.4 1 .7 1.8.7 1.6 0 2.4-.9 2.4-2.6 0-.9-.2-1.5-.6-2-.4-.5-1-.7-1.8-.7s-1.4.2-1.8.7c-.4.5-.6 1.1-.6 2zM73.4 24.7c-2.1 0-3.7-.6-4.8-1.8-1.2-1.2-1.7-2.9-1.7-5 0-2.2.5-3.9 1.6-5.1 1.1-1.2 2.6-1.9 4.4-1.9 1.7 0 3.1.5 4.1 1.6 1 1.1 1.5 2.5 1.5 4.4v1.5h-8.8c0 1.3.4 2.3 1 3 .7.7 1.6 1 2.8 1 .8 0 1.5-.1 2.2-.2.7-.1 1.4-.4 2.2-.7v2.3c-.7.3-1.4.6-2.1.7-.7.2-1.5.2-2.4.2zm-.5-11.6c-.9 0-1.6.3-2.1.9-.5.6-.9 1.4-1 2.5h6c0-1.1-.3-1.9-.8-2.5-.5-.6-1.2-.9-2.1-.9zM87.9 11c.6 0 1 0 1.4.1l-.3 2.6c-.4-.1-.8-.1-1.2-.1-1.1 0-2 .4-2.7 1.1-.7.7-1 1.7-1 2.9v6.9h-2.8V11.2h2.2l.4 2.3h.1c.4-.8 1-1.4 1.7-1.9.6-.4 1.4-.6 2.2-.6z"/></symbol></svg>